<svg xmlns="http://www.w3.org/2000/svg" viewBox="0 0 512 512"><path d="M198.001 47.942c-82.715 0-150.008 67.294-150.008 150.008s67.294 150.008 150.008 150.008 150.008-67.294 150.008-150.008S280.716 47.942 198.001 47.942zm0 280.016c-71.686 0-130.007-58.32-130.007-130.007S126.315 67.943 198.001 67.943s130.007 58.32 130.007 130.007-58.321 130.008-130.007 130.008zm-125.028-3.295l-.844-.84c-3.905-3.904-10.238-3.904-14.144 0-3.905 3.905-3.905 10.238 0 14.144l.928.922a9.97 9.97 0 007.029 2.888 9.967 9.967 0 007.112-2.97c3.884-3.928 3.847-10.26-.081-14.144z"/><path d="M500.084 442.402L363.843 306.163c50.105-76.75 41.501-180.898-25.827-248.228-77.204-77.203-202.826-77.203-280.03 0C25.945 89.977 5.727 132.399 1.055 177.384c-4.604 44.336 5.965 89.348 29.761 126.742 2.965 4.661 9.147 6.033 13.806 3.068 4.659-2.965 6.033-9.147 3.068-13.806C3.329 223.675 13.606 130.599 72.129 72.077c69.407-69.406 182.338-69.406 251.744 0s69.406 182.338 0 251.744c-59.871 59.873-154.341 69.242-224.625 22.277-4.591-3.068-10.803-1.833-13.871 2.759-3.068 4.592-1.833 10.803 2.759 13.871 33.335 22.275 71.55 33.159 109.597 33.159 38.013 0 75.848-10.881 108.455-32.119l33.002 33.002.004.004.004.004 103.254 103.253c7.697 7.696 17.931 11.936 28.815 11.936s21.117-4.238 28.816-11.937c15.889-15.888 15.889-41.74.001-57.628zm-177.516-90.539a197.658 197.658 0 0029.354-29.337l23.699 23.698c-.059.056-.122.105-.18.163l-29.174 29.174-23.699-23.698zm163.374 134.026c-3.92 3.92-9.132 6.078-14.674 6.078s-10.753-2.158-14.673-6.077l-96.185-96.184 29.174-29.174c.058-.058.107-.121.163-.18l96.195 96.194c8.089 8.088 8.089 21.253 0 29.343z"/><path d="M236.58 104.578c-5.104-2.109-10.953.315-13.064 5.419-2.11 5.104.316 10.952 5.42 13.064 30.416 12.579 50.069 41.975 50.069 74.89 0 5.522 4.477 10.001 10.001 10.001s10.001-4.478 10.001-10.001c0-41.038-24.504-77.689-62.427-93.373zm-37.186-7.624c-.464-.007-.928-.01-1.394-.01-5.523 0-10.001 4.478-10.001 10.001 0 5.522 4.478 10.001 10.002 10.001.372 0 .742.003 1.113.008l.143.001c5.457 0 9.92-4.385 9.997-9.86.078-5.522-4.337-10.063-9.86-10.141z"/></svg>